<svg xmlns="http://www.w3.org/2000/svg" width="345.6" height="357.12" viewBox="0 0 259.2 267.84"><defs><style>*{stroke-linejoin:round;stroke-linecap:butt}</style></defs><g id="figure_1"><path id="patch_1" d="M0 267.84h259.2V0H0z" style="fill:none;opacity:0"/><g id="axes_1"><path id="FillBetweenPolyCollection_1" d="M0 255.718v-8.65l.52-.28.519-.289.52-.295.519-.303.52-.31.519-.319.52-.326.519-.335.519-.342.52-.351.519-.36.52-.367.519-.377.52-.385.519-.394.519-.403.52-.412.519-.422.52-.43.519-.44.52-.45.519-.459.52-.469.519-.478.519-.489.52-.498.519-.508.52-.519.519-.528.52-.54.519-.548.519-.56.52-.57.519-.58.52-.59.519-.602.52-.612.519-.622.52-.633.519-.644.519-.654.52-.665.519-.676.52-.686.519-.697.52-.707.519-.718.52-.729.519-.74.519-.749.52-.76.519-.77.52-.78.519-.792.52-.8.519-.812.519-.82.52-.832.519-.84.52-.85.519-.86.52-.869.519-.878.52-.887.519-.896.519-.904.52-.913.519-.922.52-.93.519-.937.52-.945.519-.952.519-.96.52-.967.519-.973.52-.98.519-.986.52-.992.519-.998.52-1.003.519-1.008.519-1.013.52-1.018.519-1.021.52-1.025.519-1.03.52-1.03.519-1.035.52-1.037.518-1.04.52-1.04.52-1.042.519-1.043.52-1.043.519-1.044.52-1.043.519-1.042.519-1.041.52-1.04.519-1.038.52-1.035.519-1.033.52-1.03.519-1.025.52-1.021.519-1.017.519-1.012.52-1.006.519-1 .52-.995.519-.987.52-.98.519-.972.519-.964.52-.955.519-.947.52-.936.519-.927.52-.916.519-.905.52-.893.519-.882.519-.87.52-.857.519-.843.52-.83.519-.817.52-.801.519-.787.52-.771.518-.756.52-.74.52-.723.519-.707.52-.689.519-.672.52-.653.519-.635.519-.617.52-.598.519-.578.52-.558.519-.539.52-.518.519-.498.52-.477.519-.456.519-.434.52-.413.519-.39.52-.37.519-.346.52-.324.519-.302.519-.279.52-.255.519-.233.52-.21.519-.185.52-.162.519-.14.52-.114.519-.092.519-.067.52-.044.519-.02.52.004.519.028.52.052.519.075.519.1.52.123.519.146.52.17.519.194.52.217.519.24.52.264.519.286.519.31.52.33.519.355.52.376.519.398.52.42.519.442.52.463.519.484.519.504.52.525.519.546.52.565.519.585.52.603.519.623.519.642.52.66.519.677.52.695.519.712.52.729.519.745.52.761.519.777.519.791.52.807.519.82.52.835.519.849.52.86.519.874.519.886.52.898.519.909.52.92.519.929.52.94.519.95.52.957.519.967.519.975.52.982.519.99.52.996.519 1.002.52 1.009.519 1.013.52 1.019.519 1.023.519 1.026.52 1.03.519 1.034.52 1.037.519 1.038.52 1.04.519 1.042.519 1.043.52 1.043.519 1.044.52 1.043.519 1.042.52 1.042.519 1.04.52 1.038.519 1.037.519 1.033.52 1.031.519 1.028.52 1.024.519 1.02.52 1.016.519 1.011.519 1.007.52 1.001.519.996.52.99.519.984.52.978.519.971.52.965.519.957.519.95.52.943.519.934.52.927.519.919.52.91.519.902.52.893.518.884.52.875.52.866.519.856.52.847.519.837.52.828.519.818.519.807.52.798.519.787.52.778.519.767.52.756.519.746.52.736.519.725.519.715.52.704.519.693.52.683.519.672.52.661.519.651.519.64.52.63.519.619.52.608.519.598.52.587.519.577.52.566.519.556.519.546.52.535.519.525.52.515.519.505.52.495.519.485.52.476.518.465.52.456.52.446.519.437.52.428.519.418.52.41.519.4.519.39.52.383.519.373.52.365.519.357.52.348.519.34.52.332.519.323.519.316.52.308.519.3.52.293.519.286.52.278.519.27.519.265.52.257.519.25.52.244.519.237.52.23.519.225.52.218.519.212.519.206.52.2.519.195.52.19.519.183.52.178.519.174.519.168.52.163.519.158.52.153.519.149.52.144.519.14.52.135.519.132.519.127.52.123.519.119.52.115.519.112.52.108.519.104.52.101.519.098.519.095.52.09.519.09.52.084.519.083.52.08.519.076.519.074.52.071.519.07.52.066.519.064.52.062.519.06.52.057.519.055.519.054.52.051.519.05.52.047.519.046.52.044.519.043.519.04.52.04.519.038.52.036.519.035.52.034.519.032.52.03.519.03.519.029.52.027.519.027.52.025.519.024.52.023.519.023.52.02.519.021.519.02.52.019.519.018.52.017.519.016.52.016.519.015.519.015.52.014.519.013.52.013.519.012.52.011.519.011.52.01.519.01.519.01.52.01.519.009.52.008.519.008.52.008.519.007.519.007.52.006.519.007.52.006.519.005.52.006.519.005.52.005.519.005.519.004.52.005.519.004.52.004.519.003.52.004.519.003.52.003.518.003.52.003.52.003.519.002.52.003.519.002.52.002.519.002.519.002.52.002.519.002.52.002.519.001.52.002.519.001.52.002.519.001.519.001.52.001.519.002h.52l.519.002h.52l.519.001.519.001.52.001h.519l.52.001.519.001h.52l.519.001h.52l.519.001.519.001h1.039l.52.001h.519l.52.001h1.038l.52.001h1.558l.52.001h1.558l.519.001v.003H0z" clip-path="url(#p5d155ad1b9)" style="fill:#2563eb;fill-opacity:.4;stroke:#2563eb;stroke-opacity:.4"/><path id="FillBetweenPolyCollection_2" d="M0 255.718h49.867l.519-.001h2.597l.52-.001h1.039l.519-.001h.519l.52-.001h.519l.52-.001.519-.001h.52l.519-.002h.519l.52-.002.519-.001.52-.002.519-.001.52-.002.519-.002.52-.003.519-.002.519-.003.52-.004.519-.003.52-.004.519-.005.52-.005.519-.006.52-.006.518-.007.52-.008.52-.009.519-.01.52-.01.519-.012.52-.013.519-.015.519-.016.52-.017.519-.02.52-.022.519-.023.52-.026.519-.03.52-.03.519-.036.519-.038.52-.041.519-.046.52-.05.519-.055.52-.06.519-.065.519-.07.52-.078.519-.085.52-.091.519-.1.52-.109.519-.117.52-.128.519-.138.519-.15.52-.16.519-.176.52-.188.519-.204.52-.219.519-.236.519-.254.52-.273.519-.294.52-.315.519-.337.52-.362.519-.387.52-.414.519-.443.519-.472.52-.504.519-.538.52-.571.519-.609.52-.647.519-.686.52-.73.519-.772.519-.818.52-.866.519-.916.52-.967.519-1.02.52-1.077.519-1.133.519-1.193.52-1.255.519-1.318.52-1.383.519-1.45.52-1.52.519-1.59.52-1.664.519-1.737.519-1.813.52-1.89.519-1.97.52-2.048.519-2.13.52-2.213.519-2.295.519-2.38.52-2.464.519-2.548.52-2.634.519-2.72.52-2.803.519-2.89.52-2.972.519-3.056.519-3.139.52-3.22.519-3.299.52-3.377.519-3.452.52-3.527.519-3.597.52-3.665.519-3.73.519-3.792.52-3.85.519-3.904.52-3.954.519-3.999.52-4.04.519-4.076.519-4.106.52-4.132.519-4.15.52-4.165.519-4.172.52-4.174.519-4.168.52-4.156.519-4.137.519-4.111.52-4.079.519-4.039.52-3.992.519-3.937.52-3.876.519-3.807.519-3.73.52-3.647.519-3.557.52-3.458.519-3.354.52-3.242.519-3.123.52-2.998.519-2.867.519-2.73.52-2.585.519-2.437.52-2.282.519-2.123.52-1.959.519-1.79.52-1.617.518-1.44.52-1.262.52-1.079.519-.894.52-.707.519-.518.52-.328.519-.138.519.053.52.244.519.434.52.623.519.81.52.998.519 1.18.52 1.362.519 1.539.519 1.714.52 1.884.519 2.05.52 2.212.519 2.369.52 2.52.519 2.666.519 2.807.52 2.94.519 3.07.52 3.19.519 3.304.52 3.413.519 3.514.52 3.607.519 3.694.519 3.774.52 3.846.519 3.911.52 3.969.519 4.019.52 4.062.519 4.097.52 4.127.518 4.148.52 4.164.52 4.172.519 4.173.52 4.169.519 4.157.52 4.141.519 4.119.519 4.09.52 4.056.519 4.018.52 3.975.519 3.927.52 3.874.519 3.818.52 3.758.519 3.695.519 3.627.52 3.558.519 3.486.52 3.41.519 3.335.52 3.255.519 3.175.519 3.093.52 3.01.519 2.926.52 2.842.519 2.757.52 2.672.519 2.586.52 2.502.519 2.416.519 2.333.52 2.25.519 2.166.52 2.085.519 2.004.52 1.926.519 1.847.519 1.77.52 1.696.519 1.623.52 1.55.519 1.481.52 1.413.519 1.347.52 1.283.519 1.22.519 1.16.52 1.101.519 1.045.52.991.519.938.52.888.519.84.52.792.519.748.519.705.52.665.519.625.52.588.519.552.52.519.519.486.519.455.52.427.519.399.52.373.519.348.52.325.519.303.52.282.519.262.519.244.52.227.519.21.52.195.519.181.52.167.519.155.519.143.52.132.519.122.52.113.519.103.52.096.519.087.52.08.519.075.519.067.52.062.519.057.52.052.519.048.52.043.519.04.52.036.519.033.519.03.52.027.519.025.52.023.519.02.52.019.519.016.519.016.52.013.519.013.52.011.519.01.52.01.519.008.52.007.519.007.519.006.52.005.519.005.52.004.519.004.52.003.519.003.519.003.52.003.519.002.52.002.519.002.52.001.519.002h.52l.519.002h.519l.52.002h.519l.52.001h.519l.52.001h.519l.52.001h1.038l.52.001h2.078l.519.001H259.2 0z" clip-path="url(#p5d155ad1b9)" style="fill:#ea580c;fill-opacity:.4;stroke:#ea580c;stroke-opacity:.4"/><path id="FillBetweenPolyCollection_3" d="M0 255.718h36.881l.519-.001h3.636l.52-.001h2.077l.52-.001h1.558l.52-.001h.518l.52-.001h1.039l.52-.001h.519l.52-.001.519-.001h.519l.52-.002h.519l.52-.001.519-.001.52-.001.519-.001.52-.001.519-.001.519-.002.52-.001.519-.002.52-.001.519-.002.52-.002.519-.002.519-.002.52-.002.519-.003.52-.003.519-.003.52-.003.519-.003.52-.003.519-.004.519-.004.52-.005.519-.004.52-.005.519-.005.52-.006.519-.006.52-.007.518-.006.52-.008.52-.007.519-.009.52-.009.519-.01.52-.01.519-.01.519-.011.52-.012.519-.013.52-.014.519-.014.52-.016.519-.016.52-.018.519-.018.519-.02.52-.02.519-.022.52-.024.519-.024.52-.027.519-.027.519-.03.52-.03.519-.033.52-.035.519-.036.52-.04.519-.04.52-.043.519-.045.519-.048.52-.05.519-.054.52-.056.519-.06.52-.061.519-.066.519-.069.52-.072.519-.076.52-.08.519-.084.52-.089.519-.092.52-.098.519-.102.519-.107.52-.112.519-.117.52-.123.519-.13.52-.134.519-.142.52-.147.519-.155.519-.161.52-.169.519-.176.52-.184.519-.192.52-.2.519-.21.519-.217.52-.227.519-.237.52-.246.519-.256.52-.267.519-.278.52-.288.519-.3.519-.312.52-.323.519-.336.52-.35.519-.361.52-.375.519-.39.519-.403.52-.417.519-.433.52-.448.519-.463.52-.479.519-.495.52-.512.519-.529.519-.546.52-.564.519-.582.52-.6.519-.619.52-.638.519-.657.52-.676.519-.697.519-.717.52-.737.519-.758.52-.78.519-.8.52-.822.519-.844.519-.866.52-.888.519-.91.52-.933.519-.956.52-.98.519-1.001.52-1.025.519-1.049.519-1.071.52-1.095.519-1.119.52-1.142.519-1.165.52-1.188.519-1.212.519-1.235.52-1.258.519-1.281.52-1.304.519-1.326.52-1.349.519-1.37.52-1.393.519-1.414.519-1.435.52-1.456.519-1.476.52-1.496.519-1.516.52-1.534.519-1.553.52-1.571.518-1.588.52-1.605.52-1.62.519-1.637.52-1.65.519-1.665.52-1.678.519-1.69.519-1.7.52-1.713.519-1.721.52-1.73.519-1.738.52-1.745.519-1.75.52-1.756.519-1.759.519-1.761.52-1.763.519-1.764.52-1.762.519-1.76.52-1.758.519-1.753.519-1.748.52-1.74.519-1.733.52-1.723.519-1.713.52-1.7.519-1.688.52-1.673.519-1.657.519-1.64.52-1.622.519-1.602.52-1.582.519-1.558.52-1.535.519-1.51.52-1.485.518-1.457.52-1.428.52-1.398.519-1.367.52-1.335.519-1.3.52-1.267.519-1.231.519-1.194.52-1.156.519-1.116.52-1.077.519-1.036.52-.993.519-.95.52-.908.519-.862.519-.816.52-.77.519-.724.52-.675.519-.627.52-.578.519-.529.519-.479.52-.428.519-.377.52-.326.519-.274.52-.223.519-.17.52-.118.519-.066.519-.013.52.039.519.091.52.144.519.196.52.247.519.3.519.351.52.402.519.453.52.503.519.553.52.602.519.651.52.7.519.745.519.793.52.84.519.883.52.929.519.971.52 1.014.519 1.056.52 1.097.519 1.136.519 1.174.52 1.212.519 1.248.52 1.284.519 1.318.52 1.35.519 1.383.519 1.413.52 1.442.519 1.47.52 1.497.519 1.523.52 1.547.519 1.57.52 1.591.519 1.612.519 1.631.52 1.649.519 1.665.52 1.68.519 1.694.52 1.707.519 1.718.519 1.728.52 1.737.519 1.744.52 1.75.519 1.756.52 1.759.519 1.761.52 1.764.519 1.763.519 1.762.52 1.76.519 1.758.52 1.753.519 1.748.52 1.741.519 1.735.52 1.726.519 1.717.519 1.706.52 1.696.519 1.684.52 1.672.519 1.657.52 1.644.519 1.629.519 1.613.52 1.596.519 1.58.52 1.562.519 1.544.52 1.526.519 1.506.52 1.486.519 1.467.519 1.445.52 1.425.519 1.404.52 1.381.519 1.36.52 1.338.519 1.315.519 1.293.52 1.27.519 1.246.52 1.224.519 1.2.52 1.178.519 1.154.52 1.13.519 1.107.519 1.083.52 1.06.519 1.038.52 1.013.519.991.52.968.519.945.52.922.518.9.52.877.52.855.519.833.52.811.519.79.52.77.519.747.519.727.52.707.519.687.52.667.519.648.52.628.519.61.52.59.519.574.519.555.52.538.519.52.52.504.519.487.52.472.519.455.519.44.52.426.519.41.52.396.519.383.52.368.519.356.52.342.519.33.519.318.52.306.519.294.52.283.519.273.52.261.519.252.519.241.52.232.519.222.52.214.519.205.52.196.519.188.52.18.519.172.519.166v3.198H0z" clip-path="url(#p5d155ad1b9)" style="fill:#16a34a;fill-opacity:.4;stroke:#16a34a;stroke-opacity:.4"/><path id="line2d_1" d="m0 247.068 3.117-1.796 3.116-2.081 3.117-2.393 3.117-2.726 3.116-3.081 3.117-3.45 3.116-3.831 3.117-4.213 3.117-4.59 3.116-4.955 3.636-6.207 4.156-7.586 4.675-9.02 16.622-32.59 3.636-6.33 3.117-4.935 2.597-3.697 2.597-3.266 2.078-2.273 2.078-1.949 2.077-1.607 1.559-.972 1.558-.767 1.558-.557 1.559-.346 1.558-.13 1.558.083 1.558.298 1.559.51 1.558.72 1.558.928 2.078 1.548 2.078 1.893 2.078 2.22 2.077 2.528 2.598 3.559 2.597 3.957 3.116 5.2 3.637 6.573 4.675 9.009 16.622 32.631 4.155 7.378 3.636 5.993 3.117 4.755 3.116 4.382 3.117 4 3.117 3.619 3.116 3.243 3.117 2.882 3.117 2.538 3.116 2.217 3.117 1.92 3.116 1.648 3.117 1.404 3.117 1.186 3.636 1.143 3.636.92 4.155.824 4.675.693 5.195.546 6.233.43 7.792.312 10.908.2 19.219.094 12.986.011h0" clip-path="url(#p5d155ad1b9)" style="fill:none;stroke:#2563eb;stroke-width:4;stroke-linecap:square"/><path id="line2d_2" d="m0 255.718 70.124-.103 5.714-.225 3.636-.324 3.117-.49 2.597-.641 2.078-.729 2.077-.982 1.559-.946 1.558-1.163 1.558-1.42 1.559-1.717 1.558-2.062 1.558-2.457 1.559-2.903 1.558-3.403 1.558-3.956 1.559-4.56 1.558-5.214 1.558-5.908 1.559-6.638 2.077-10.026 2.078-11.385 2.078-12.714 2.078-13.953 2.597-18.94 3.636-28.459 5.714-45.129 2.597-18.617 2.078-13.177 1.558-8.595 1.558-7.304 1.04-4.082 1.038-3.407 1.039-2.702 1.039-1.973.52-.707.519-.518.52-.328.519-.138.519.053.52.244.519.434.52.623L147 10.885l1.04 2.542 1.038 3.253 1.039 3.934 1.558 7.101 1.558 8.414 1.559 9.563 2.078 14.228 2.597 19.519 5.714 45.529 3.636 27.758 2.597 18.124 2.078 13.175 2.077 11.871 2.078 10.517 2.078 9.165 1.558 6.015 1.558 5.313 1.559 4.654 1.558 4.043 1.558 3.481 1.559 2.974 1.558 2.52 1.558 2.118 1.559 1.765 1.558 1.46 1.558 1.199 1.559.976 2.077 1.015 2.078.753 2.597.665 3.117.508 3.636.338 5.194.222 8.83.104 33.245.017h0" clip-path="url(#p5d155ad1b9)" style="fill:none;stroke:#ea580c;stroke-width:4;stroke-linecap:square"/><path id="line2d_3" d="m0 255.718 68.566-.11 9.35-.25 6.233-.388 4.675-.509 3.636-.59 3.636-.826 3.117-.95 2.597-1.003 2.597-1.233 2.597-1.501 2.598-1.812 2.077-1.7 2.078-1.95 2.078-2.22 2.078-2.515 2.077-2.827 2.078-3.16 2.078-3.508 2.078-3.87 2.597-5.359 2.597-5.942 2.597-6.518 2.597-7.068 3.117-9.146 3.636-11.443 4.675-15.543 8.311-27.798 3.117-9.661 2.597-7.415 2.078-5.4 2.077-4.848 2.078-4.222 1.559-2.72 1.558-2.31 1.558-1.88 1.558-1.436 1.04-.703 1.038-.497 1.04-.288 1.038-.08 1.039.131 1.039.34 1.039.547 1.038.753 1.04.956 1.558 1.806 1.558 2.238 1.558 2.652 1.559 3.041 2.077 4.62 2.078 5.2 2.597 7.204 3.117 9.474 3.636 11.841 12.986 43.035 3.117 9.314 3.116 8.608 2.597 6.576 2.598 6.002 2.597 5.418 2.597 4.839 2.597 4.276 2.078 3.034 2.078 2.709 2.078 2.402 2.077 2.117 2.078 1.854 2.597 1.983 2.597 1.652 2.598 1.363 2.597 1.114 2.597.902h0" clip-path="url(#p5d155ad1b9)" style="fill:none;stroke:#16a34a;stroke-width:4;stroke-linecap:square"/><path id="line2d_4" d="m0 252.835 4.675-.933 4.675-1.157 4.155-1.238 4.156-1.451 4.155-1.674 4.156-1.9 4.675-2.403 4.675-2.66 5.194-3.207 7.272-4.782 10.39-6.834 4.674-2.817 4.156-2.253 3.636-1.725 3.636-1.463 3.116-1.035 3.636-.958 3.637-.725 5.713-.865 4.675-.794 2.598-.648 2.077-.705 2.078-.93 2.078-1.21 2.078-1.543 1.558-1.409 1.558-1.644 1.558-1.897 2.078-2.944 2.078-3.43 2.078-3.914 2.078-4.374 2.597-6.042 3.116-7.893 8.311-21.588 2.078-4.753 2.078-4.205 1.558-2.718 1.558-2.293 1.559-1.833 1.039-.952 1.039-.73 1.038-.503 1.04-.277 1.038-.05 1.04.172 1.038.391 1.039.602 1.039.804 1.558 1.562 1.558 1.954 1.559 2.297 2.077 3.511 2.598 4.932 3.636 7.489 6.752 13.975 3.117 5.944 3.117 5.48 3.116 5.016 3.117 4.613 3.636 4.994 5.194 6.697 10.39 12.909 7.271 8.774 4.675 5.304 3.636 3.831 3.636 3.509 3.117 2.72 3.117 2.44 3.116 2.154 3.117 1.874 3.117 1.608 3.116 1.358 3.117 1.132 3.636 1.067 3.636.832 4.155.715 4.156.515h0" clip-path="url(#p5d155ad1b9)" style="fill:none;stroke:#555;stroke-width:8;stroke-linecap:square"/></g></g><defs><clipPath id="p5d155ad1b9"><path d="M0 0h259.2v267.84H0z"/></clipPath></defs></svg>
